<svg width="64" height="64" viewBox="0 0 64 64" fill="none" xmlns="http://www.w3.org/2000/svg">
<path d="M20.61 43.8598C21.23 44.5498 25.89 46.9598 25.89 46.9598C27.307 47.5632 28.8075 47.9476 30.34 48.0998C41.73 49.0998 50.96 41.0998 54.44 32.2098C54.4696 32.1455 54.485 32.0756 54.485 32.0048C54.485 31.934 54.4696 31.8641 54.44 31.7998C53.49 29.9998 46 16.2698 32.66 15.9398C19.32 15.6098 11.66 29.7098 10.58 31.7498C10.538 31.8246 10.5159 31.909 10.5159 31.9948C10.5159 32.0806 10.538 32.165 10.58 32.2398C12.7607 35.7593 15.3745 38.9912 18.36 41.8598" stroke="#260101" stroke-width="3"/>
<path d="M32.3499 38.78C36.1662 38.78 39.2599 35.6863 39.2599 31.87C39.2599 28.0537 36.1662 24.96 32.3499 24.96C28.5337 24.96 25.4399 28.0537 25.4399 31.87C25.4399 35.6863 28.5337 38.78 32.3499 38.78Z" stroke="#260101" stroke-width="3"/>
<path d="M54.48 10L10.74 53.74" stroke="#260101" stroke-width="3"/>
</svg>
