<svg width="175" height="26" viewBox="0 0 175 26" fill="none" xmlns="http://www.w3.org/2000/svg">
<path d="M174.503 8.84L167.503 25.3H163.823L166.383 19.62L161.843 8.84H165.663L168.243 15.82L170.803 8.84H174.503Z" fill="#0C0C0D"/>
<path d="M157.969 10.7C158.369 10.0867 158.869 9.60667 159.469 9.26C160.069 8.9 160.735 8.72 161.469 8.72V12.34H160.529C159.675 12.34 159.035 12.5267 158.609 12.9C158.182 13.26 157.969 13.9 157.969 14.82V20H154.549V8.84H157.969V10.7Z" fill="#0C0C0D"/>
<path d="M140.294 14.4C140.294 13.2533 140.508 12.2467 140.934 11.38C141.374 10.5133 141.968 9.84666 142.714 9.37999C143.461 8.91333 144.294 8.67999 145.214 8.67999C146.001 8.67999 146.688 8.83999 147.274 9.15999C147.874 9.47999 148.334 9.89999 148.654 10.42V8.83999H152.074V20H148.654V18.42C148.321 18.94 147.854 19.36 147.254 19.68C146.668 20 145.981 20.16 145.194 20.16C144.288 20.16 143.461 19.9267 142.714 19.46C141.968 18.98 141.374 18.3067 140.934 17.44C140.508 16.56 140.294 15.5467 140.294 14.4ZM148.654 14.42C148.654 13.5667 148.414 12.8933 147.934 12.4C147.468 11.9067 146.894 11.66 146.214 11.66C145.534 11.66 144.954 11.9067 144.474 12.4C144.008 12.88 143.774 13.5467 143.774 14.4C143.774 15.2533 144.008 15.9333 144.474 16.44C144.954 16.9333 145.534 17.18 146.214 17.18C146.894 17.18 147.468 16.9333 147.934 16.44C148.414 15.9467 148.654 15.2733 148.654 14.42Z" fill="#0C0C0D"/>
<path d="M136.796 7.68C136.196 7.68 135.703 7.50666 135.316 7.16C134.943 6.8 134.756 6.36 134.756 5.84C134.756 5.30666 134.943 4.86666 135.316 4.52C135.703 4.16 136.196 3.98 136.796 3.98C137.383 3.98 137.863 4.16 138.236 4.52C138.623 4.86666 138.816 5.30666 138.816 5.84C138.816 6.36 138.623 6.8 138.236 7.16C137.863 7.50666 137.383 7.68 136.796 7.68ZM138.496 8.84V20H135.076V8.84H138.496Z" fill="#0C0C0D"/>
<path d="M120.822 14.4C120.822 13.2533 121.035 12.2467 121.462 11.38C121.902 10.5133 122.495 9.84666 123.242 9.38C123.988 8.91333 124.822 8.68 125.742 8.68C126.475 8.68 127.142 8.83333 127.742 9.14C128.355 9.44666 128.835 9.86 129.182 10.38V5.2H132.602V20H129.182V18.4C128.862 18.9333 128.402 19.36 127.802 19.68C127.215 20 126.528 20.16 125.742 20.16C124.822 20.16 123.988 19.9267 123.242 19.46C122.495 18.98 121.902 18.3067 121.462 17.44C121.035 16.56 120.822 15.5467 120.822 14.4ZM129.182 14.42C129.182 13.5667 128.942 12.8933 128.462 12.4C127.995 11.9067 127.422 11.66 126.742 11.66C126.062 11.66 125.482 11.9067 125.002 12.4C124.535 12.88 124.302 13.5467 124.302 14.4C124.302 15.2533 124.535 15.9333 125.002 16.44C125.482 16.9333 126.062 17.18 126.742 17.18C127.422 17.18 127.995 16.9333 128.462 16.44C128.942 15.9467 129.182 15.2733 129.182 14.42Z" fill="#0C0C0D"/>
<path d="M103.009 14.4C103.009 13.2533 103.223 12.2467 103.649 11.38C104.089 10.5133 104.683 9.84666 105.429 9.37999C106.176 8.91333 107.009 8.67999 107.929 8.67999C108.716 8.67999 109.403 8.83999 109.989 9.15999C110.589 9.47999 111.049 9.89999 111.369 10.42V8.83999H114.789V20H111.369V18.42C111.036 18.94 110.569 19.36 109.969 19.68C109.383 20 108.696 20.16 107.909 20.16C107.003 20.16 106.176 19.9267 105.429 19.46C104.683 18.98 104.089 18.3067 103.649 17.44C103.223 16.56 103.009 15.5467 103.009 14.4ZM111.369 14.42C111.369 13.5667 111.129 12.8933 110.649 12.4C110.183 11.9067 109.609 11.66 108.929 11.66C108.249 11.66 107.669 11.9067 107.189 12.4C106.723 12.88 106.489 13.5467 106.489 14.4C106.489 15.2533 106.723 15.9333 107.189 16.44C107.669 16.9333 108.249 17.18 108.929 17.18C109.609 17.18 110.183 16.9333 110.649 16.44C111.129 15.9467 111.369 15.2733 111.369 14.42Z" fill="#0C0C0D"/>
<path d="M101.885 14.24C101.885 14.56 101.865 14.8933 101.825 15.24H94.085C94.1383 15.9333 94.3583 16.4667 94.745 16.84C95.145 17.2 95.6317 17.38 96.205 17.38C97.0583 17.38 97.6517 17.02 97.985 16.3H101.625C101.438 17.0333 101.098 17.6933 100.605 18.28C100.125 18.8667 99.5183 19.3267 98.785 19.66C98.0517 19.9933 97.2317 20.16 96.325 20.16C95.2317 20.16 94.2583 19.9267 93.405 19.46C92.5517 18.9933 91.885 18.3267 91.405 17.46C90.925 16.5933 90.685 15.58 90.685 14.42C90.685 13.26 90.9183 12.2467 91.385 11.38C91.865 10.5133 92.5317 9.84666 93.385 9.37999C94.2383 8.91333 95.2183 8.67999 96.325 8.67999C97.405 8.67999 98.365 8.90666 99.205 9.35999C100.045 9.81333 100.698 10.46 101.165 11.3C101.645 12.14 101.885 13.12 101.885 14.24ZM98.385 13.34C98.385 12.7533 98.185 12.2867 97.785 11.94C97.385 11.5933 96.885 11.42 96.285 11.42C95.7117 11.42 95.225 11.5867 94.825 11.92C94.4383 12.2533 94.1983 12.7267 94.105 13.34H98.385Z" fill="#0C0C0D"/>
<path d="M78.5756 14.42C78.5756 13.26 78.809 12.2467 79.2756 11.38C79.7556 10.5133 80.4156 9.84666 81.2556 9.37999C82.109 8.91333 83.0823 8.67999 84.1756 8.67999C85.5756 8.67999 86.7423 9.04666 87.6756 9.77999C88.6223 10.5133 89.2423 11.5467 89.5356 12.88H85.8956C85.589 12.0267 84.9956 11.6 84.1156 11.6C83.489 11.6 82.989 11.8467 82.6156 12.34C82.2423 12.82 82.0556 13.5133 82.0556 14.42C82.0556 15.3267 82.2423 16.0267 82.6156 16.52C82.989 17 83.489 17.24 84.1156 17.24C84.9956 17.24 85.589 16.8133 85.8956 15.96H89.5356C89.2423 17.2667 88.6223 18.2933 87.6756 19.04C86.729 19.7867 85.5623 20.16 84.1756 20.16C83.0823 20.16 82.109 19.9267 81.2556 19.46C80.4156 18.9933 79.7556 18.3267 79.2756 17.46C78.809 16.5933 78.5756 15.58 78.5756 14.42Z" fill="#0C0C0D"/>
<path d="M65.0014 14.4C65.0014 13.2533 65.2147 12.2467 65.6414 11.38C66.0814 10.5133 66.6747 9.84666 67.4214 9.37999C68.1681 8.91333 69.0014 8.67999 69.9214 8.67999C70.7081 8.67999 71.3947 8.83999 71.9814 9.15999C72.5814 9.47999 73.0414 9.89999 73.3614 10.42V8.83999H76.7814V20H73.3614V18.42C73.0281 18.94 72.5614 19.36 71.9614 19.68C71.3747 20 70.6881 20.16 69.9014 20.16C68.9947 20.16 68.1681 19.9267 67.4214 19.46C66.6747 18.98 66.0814 18.3067 65.6414 17.44C65.2147 16.56 65.0014 15.5467 65.0014 14.4ZM73.3614 14.42C73.3614 13.5667 73.1214 12.8933 72.6414 12.4C72.1747 11.9067 71.6014 11.66 70.9214 11.66C70.2414 11.66 69.6614 11.9067 69.1814 12.4C68.7147 12.88 68.4814 13.5467 68.4814 14.4C68.4814 15.2533 68.7147 15.9333 69.1814 16.44C69.6614 16.9333 70.2414 17.18 70.9214 17.18C71.6014 17.18 72.1747 16.9333 72.6414 16.44C73.1214 15.9467 73.3614 15.2733 73.3614 14.42Z" fill="#0C0C0D"/>
<path d="M59.0691 20.16C58.0957 20.16 57.2291 19.9933 56.4691 19.66C55.7091 19.3267 55.1091 18.8733 54.6691 18.3C54.2291 17.7133 53.9824 17.06 53.9291 16.34H57.3091C57.3491 16.7267 57.5291 17.04 57.8491 17.28C58.1691 17.52 58.5624 17.64 59.0291 17.64C59.4557 17.64 59.7824 17.56 60.0091 17.4C60.2491 17.2267 60.3691 17.0067 60.3691 16.74C60.3691 16.42 60.2024 16.1867 59.8691 16.04C59.5357 15.88 58.9957 15.7067 58.2491 15.52C57.4491 15.3333 56.7824 15.14 56.2491 14.94C55.7157 14.7267 55.2557 14.4 54.8691 13.96C54.4824 13.5067 54.2891 12.9 54.2891 12.14C54.2891 11.5 54.4624 10.92 54.8091 10.4C55.1691 9.86666 55.6891 9.44666 56.3691 9.13999C57.0624 8.83333 57.8824 8.67999 58.8291 8.67999C60.2291 8.67999 61.3291 9.02666 62.1291 9.71999C62.9424 10.4133 63.4091 11.3333 63.5291 12.48H60.3691C60.3157 12.0933 60.1424 11.7867 59.8491 11.56C59.5691 11.3333 59.1957 11.22 58.7291 11.22C58.3291 11.22 58.0224 11.3 57.8091 11.46C57.5957 11.6067 57.4891 11.8133 57.4891 12.08C57.4891 12.4 57.6557 12.64 57.9891 12.8C58.3357 12.96 58.8691 13.12 59.5891 13.28C60.4157 13.4933 61.0891 13.7067 61.6091 13.92C62.1291 14.12 62.5824 14.4533 62.9691 14.92C63.3691 15.3733 63.5757 15.9867 63.5891 16.76C63.5891 17.4133 63.4024 18 63.0291 18.52C62.6691 19.0267 62.1424 19.4267 61.4491 19.72C60.7691 20.0133 59.9757 20.16 59.0691 20.16Z" fill="#0C0C0D"/>
<path d="M46.8747 20.16C45.7814 20.16 44.7947 19.9267 43.9147 19.46C43.048 18.9933 42.3614 18.3267 41.8547 17.46C41.3614 16.5933 41.1147 15.58 41.1147 14.42C41.1147 13.2733 41.368 12.2667 41.8747 11.4C42.3814 10.52 43.0747 9.84666 43.9547 9.37999C44.8347 8.91333 45.8214 8.67999 46.9147 8.67999C48.008 8.67999 48.9947 8.91333 49.8747 9.37999C50.7547 9.84666 51.448 10.52 51.9547 11.4C52.4614 12.2667 52.7147 13.2733 52.7147 14.42C52.7147 15.5667 52.4547 16.58 51.9347 17.46C51.428 18.3267 50.728 18.9933 49.8347 19.46C48.9547 19.9267 47.968 20.16 46.8747 20.16ZM46.8747 17.2C47.528 17.2 48.0814 16.96 48.5347 16.48C49.0014 16 49.2347 15.3133 49.2347 14.42C49.2347 13.5267 49.008 12.84 48.5547 12.36C48.1147 11.88 47.568 11.64 46.9147 11.64C46.248 11.64 45.6947 11.88 45.2547 12.36C44.8147 12.8267 44.5947 13.5133 44.5947 14.42C44.5947 15.3133 44.808 16 45.2347 16.48C45.6747 16.96 46.2214 17.2 46.8747 17.2Z" fill="#0C0C0D"/>
<path d="M36.66 10.7C37.06 10.0867 37.56 9.60667 38.16 9.26C38.76 8.9 39.4267 8.72 40.16 8.72V12.34H39.22C38.3667 12.34 37.7267 12.5267 37.3 12.9C36.8733 13.26 36.66 13.9 36.66 14.82V20H33.24V8.84H36.66V10.7Z" fill="#0C0C0D"/>
<path d="M26 13C26 20.1797 20.1797 26 13 26C5.8203 26 0 20.1797 0 13C0 5.8203 5.8203 0 13 0C20.1797 0 26 5.8203 26 13Z" fill="#D97777"/>
<path d="M14.6352 16.08C14.6352 15.2773 14.7845 14.5727 15.0832 13.966C15.3912 13.3593 15.8065 12.8927 16.3292 12.566C16.8518 12.2393 17.4352 12.076 18.0792 12.076C18.5925 12.076 19.0592 12.1833 19.4792 12.398C19.9085 12.6127 20.2445 12.902 20.4872 13.266V9.64H22.8812V20H20.4872V18.88C20.2632 19.2533 19.9412 19.552 19.5212 19.776C19.1105 20 18.6298 20.112 18.0792 20.112C17.4352 20.112 16.8518 19.9487 16.3292 19.622C15.8065 19.286 15.3912 18.8147 15.0832 18.208C14.7845 17.592 14.6352 16.8827 14.6352 16.08ZM20.4872 16.094C20.4872 15.4967 20.3192 15.0253 19.9832 14.68C19.6565 14.3347 19.2552 14.162 18.7792 14.162C18.3032 14.162 17.8972 14.3347 17.5612 14.68C17.2345 15.016 17.0712 15.4827 17.0712 16.08C17.0712 16.6773 17.2345 17.1533 17.5612 17.508C17.8972 17.8533 18.3032 18.026 18.7792 18.026C19.2552 18.026 19.6565 17.8533 19.9832 17.508C20.3192 17.1627 20.4872 16.6913 20.4872 16.094Z" fill="#0C0C0D"/>
<path d="M11.5169 13.49C11.7969 13.0607 12.1469 12.7247 12.5669 12.482C12.9869 12.23 13.4535 12.104 13.9669 12.104V14.638H13.3089C12.7115 14.638 12.2635 14.7687 11.9649 15.03C11.6662 15.282 11.5169 15.73 11.5169 16.374V20H9.12288V12.188H11.5169V13.49Z" fill="#0C0C0D"/>
</svg>
