<svg width="52" height="52" viewBox="0 0 52 52" fill="none" xmlns="http://www.w3.org/2000/svg">
<path d="M52 26C52 40.3594 40.3594 52 26 52C11.6406 52 0 40.3594 0 26C0 11.6406 11.6406 0 26 0C40.3594 0 52 11.6406 52 26Z" fill="#D97777"/>
<path d="M26.5247 32.6942C26.5247 31.1271 26.8263 29.7514 27.4295 28.5669C28.0516 27.3825 28.8904 26.4714 29.946 25.8336C31.0017 25.1958 32.1798 24.8769 33.4805 24.8769C34.5173 24.8769 35.4598 25.0865 36.3081 25.5056C37.1752 25.9247 37.8538 26.4896 38.344 27.2003V20.1209H43.1791V40.3476H38.344V38.1609C37.8915 38.8898 37.2412 39.4729 36.3929 39.9102C35.5635 40.3476 34.5927 40.5662 33.4805 40.5662C32.1798 40.5662 31.0017 40.2474 29.946 39.6096C28.8904 38.9536 28.0516 38.0334 27.4295 36.8489C26.8263 35.6462 26.5247 34.2614 26.5247 32.6942ZM38.344 32.7216C38.344 31.5554 38.0046 30.6351 37.326 29.9609C36.6663 29.2867 35.8557 28.9496 34.8943 28.9496C33.9329 28.9496 33.1129 29.2867 32.4343 29.9609C31.7745 30.6169 31.4447 31.528 31.4447 32.6942C31.4447 33.8605 31.7745 34.7898 32.4343 35.4822C33.1129 36.1565 33.9329 36.4936 34.8943 36.4936C35.8557 36.4936 36.6663 36.1565 37.326 35.4822C38.0046 34.808 38.344 33.8878 38.344 32.7216Z" fill="#0C0C0D"/>
<path d="M20.4353 27.406C21.0008 26.5678 21.7077 25.9118 22.556 25.438C23.4042 24.946 24.3468 24.7 25.3835 24.7V29.6473H24.0546C22.8481 29.6473 21.9433 29.9024 21.3401 30.4127C20.7369 30.9047 20.4353 31.7793 20.4353 33.0367V40.116H15.6001V24.864H20.4353V27.406Z" fill="#0C0C0D"/>
</svg>
