<svg width="64" height="64" viewBox="0 0 64 64" fill="none" xmlns="http://www.w3.org/2000/svg">
<path d="M53.79 33.1002C53.817 33.0369 53.8309 32.9689 53.8309 32.9002C53.8309 32.8314 53.817 32.7634 53.79 32.7002C52.83 30.8902 45.29 17.1702 32 16.8402C18.71 16.5102 11 30.6102 9.92002 32.6502C9.87789 32.7231 9.85571 32.8059 9.85571 32.8902C9.85571 32.9744 9.87789 33.0572 9.92002 33.1302C11.1 35.0602 19.35 48.0502 29.68 49.0002C41.07 50.0002 50.31 42.0002 53.79 33.1002Z" stroke="#260101" stroke-width="3"/>
<path d="M31.7 39.6701C35.5163 39.6701 38.61 36.5764 38.61 32.7601C38.61 28.9438 35.5163 25.8501 31.7 25.8501C27.8838 25.8501 24.79 28.9438 24.79 32.7601C24.79 36.5764 27.8838 39.6701 31.7 39.6701Z" stroke="#260101" stroke-width="3"/>
</svg>
